<svg width="200" height="200" viewBox="0 0 200 200" fill="none" xmlns="http://www.w3.org/2000/svg">
<path fill-rule="evenodd" clip-rule="evenodd" d="M50 29.1667C50 28.0616 50.439 27.0018 51.2204 26.2204C52.0018 25.439 53.0616 25 54.1667 25H145.833C146.938 25 147.998 25.439 148.78 26.2204C149.561 27.0018 150 28.0616 150 29.1667V33.3333H170.833C171.938 33.3333 172.998 33.7723 173.78 34.5537C174.561 35.3351 175 36.3949 175 37.5V62.5C175 68.0253 172.805 73.3244 168.898 77.2314C164.991 81.1384 159.692 83.3333 154.167 83.3333H147.154C140.733 101.5 124.112 114.85 104.167 116.496V141.667H133.333C134.438 141.667 135.498 142.106 136.28 142.887C137.061 143.668 137.5 144.728 137.5 145.833V170.833C137.5 171.938 137.061 172.998 136.28 173.78C135.498 174.561 134.438 175 133.333 175H66.6667C65.5616 175 64.5018 174.561 63.7204 173.78C62.939 172.998 62.5 171.938 62.5 170.833V145.833C62.5 144.728 62.939 143.668 63.7204 142.887C64.5018 142.106 65.5616 141.667 66.6667 141.667H95.8333V116.496C75.8917 114.85 59.2667 101.5 52.8458 83.3333H45.8333C40.308 83.3333 35.0089 81.1384 31.1019 77.2314C27.1949 73.3244 25 68.0253 25 62.5V37.5C25 36.3949 25.439 35.3351 26.2204 34.5537C27.0018 33.7723 28.0616 33.3333 29.1667 33.3333H50V29.1667ZM141.667 66.6667V33.3333H58.3333V66.6667C58.3333 89.6792 76.9875 108.333 100 108.333C123.012 108.333 141.667 89.6792 141.667 66.6667ZM150 41.6667V75H154.167C157.482 75 160.661 73.683 163.005 71.3388C165.35 68.9946 166.667 65.8152 166.667 62.5V41.6667H150ZM33.3333 41.6667H50V75H45.8333C42.5181 75 39.3387 73.683 36.9945 71.3388C34.6503 68.9946 33.3333 65.8152 33.3333 62.5V41.6667ZM70.8333 150V166.667H129.167V150H70.8333Z" fill="url(#paint0_linear_139_381)"/>
<defs>
<linearGradient id="paint0_linear_139_381" x1="47.541" y1="5.46449" x2="174.863" y2="195.082" gradientUnits="userSpaceOnUse">
<stop stop-color="#76A3BE"/>
<stop offset="1" stop-color="#A0D6F8"/>
</linearGradient>
</defs>
</svg>
