<svg width="182" height="157" viewBox="0 0 182 157" fill="none" xmlns="http://www.w3.org/2000/svg">
<path d="M164.194 132.732C161.868 135.853 157.627 137.372 151.864 137.383C146.108 137.393 138.885 135.896 130.676 133.048C114.262 127.351 93.9622 116.269 73.6737 101.145C53.3852 86.0219 36.9658 69.7333 26.8181 55.6303C21.7433 48.5776 18.2457 42.0833 16.6115 36.5634C14.9756 31.0382 15.2199 26.5398 17.546 23.4192C19.8721 20.2986 24.1134 18.7796 29.8756 18.7691C35.6323 18.7585 42.8551 20.2553 51.0636 23.1041C67.4776 28.8005 87.7776 39.8832 108.066 55.0065C128.355 70.1298 144.774 86.4183 154.922 100.521C159.997 107.574 163.494 114.068 165.128 119.588C166.764 125.113 166.52 129.612 164.194 132.732Z" stroke="#A0D6F8" stroke-opacity="0.7" stroke-width="0.5"/>
<circle cx="164.74" cy="131.961" r="4" transform="rotate(-4.09965 164.74 131.961)" fill="#A0D6F8"/>
<path d="M143.031 45.3753L127.263 38.4298C127.257 38.4149 127.259 38.3958 127.253 38.3809C126.712 36.5509 125.335 35.0294 123.476 34.2059L122.876 33.9378C123.039 33.0186 122.984 32.0739 122.714 31.1801C122.171 29.3713 120.801 27.8754 118.956 27.0753L108.936 22.728C108.009 22.3275 107.009 22.1218 105.999 22.1237C104.02 22.1237 102.197 22.8769 100.911 24.1877L99.7899 23.6898C98.8659 23.2805 97.8661 23.0702 96.8555 23.0727C95.7958 23.0727 94.7999 23.3259 93.8913 23.7345L81.8899 18.4466C77.7043 16.6081 72.476 18.0274 70.1375 21.5917L22.7085 94.0491C20.3742 97.6134 21.4254 102.578 25.113 105.174L79.0342 143.14C83.8071 146.502 89.9547 145.911 92.6805 141.753L147.987 57.2597C150.711 53.1018 148.447 47.7607 143.031 45.3753ZM90.7143 33.8867L94.3829 28.284C94.8914 27.5051 95.8596 27.0625 96.8576 27.0625C97.3024 27.0625 97.7535 27.1498 98.1727 27.337L102.282 29.1585L103.467 27.3498C103.984 26.5646 104.976 26.1135 106.001 26.1135C106.457 26.1135 106.921 26.2007 107.35 26.388L117.371 30.7374C118.835 31.3716 119.405 32.8441 118.643 34.0187L117.422 35.8806L121.863 37.8532C123.359 38.515 123.948 40.0215 123.171 41.2153L119.286 47.1436C118.767 47.9395 117.777 48.3821 116.734 48.3821C116.215 48.3821 115.683 48.2693 115.187 48.0416L91.8102 37.0616C90.4632 36.4296 89.9738 35.0124 90.7143 33.8867ZM84.0965 136.839L28.5198 98.8412L77.4043 24.1686L88.878 29.4075L87.3778 31.7014C86.9031 32.4198 86.5884 33.2318 86.4551 34.0825C86.3219 34.9332 86.3731 35.8026 86.6053 36.6318C87.099 38.383 88.3779 39.8555 90.1121 40.6705L113.487 51.6505C114.503 52.1231 115.61 52.3686 116.73 52.3698C119.173 52.3698 121.378 51.2313 122.622 49.3226L124.895 45.852L139.341 52.4485L84.0965 136.839Z" fill="url(#paint0_linear_137_338)"/>
<path d="M84.639 54.6168L115.913 70.6549L117.658 67.9865L86.2796 52.108L84.639 54.6168ZM73.9314 52.6804C74.0569 53.0336 74.4336 53.1677 74.7804 52.9719L83.2495 48.2246C83.3297 48.1829 83.3993 48.1233 83.4529 48.0505C83.5065 47.9777 83.5427 47.8936 83.5587 47.8046C83.5747 47.7157 83.5702 47.6242 83.5453 47.5373C83.5205 47.4503 83.4761 47.3703 83.4155 47.3032L82.9516 46.7499C82.8176 46.5982 82.6366 46.4958 82.4375 46.4592C82.2384 46.4225 82.0328 46.4537 81.8536 46.5478L76.0572 49.812C75.7167 50.0078 75.3337 49.878 75.2145 49.5226L74.1952 46.5563C74.0739 46.2094 73.6505 45.9945 73.2504 46.0775L72.5163 46.2286C72.1184 46.3095 71.8843 46.6648 72.0056 47.0117L73.9314 52.6804ZM75.0294 69.2909L105.684 86.2801L107.433 83.6117L76.6743 66.7799L75.0294 69.2909ZM74.4846 61.7474L65.3325 56.8192L60.1106 64.7989L69.1627 69.8824L74.4846 61.7474ZM65.4261 83.9649L95.4573 101.905L97.2022 99.2306L67.0646 81.4561L65.4261 83.9649ZM64.9622 76.3002L55.991 71.0826L50.7712 79.0622L59.6361 84.4373L64.9622 76.3002ZM55.8207 98.6369L85.2285 117.524L86.9797 114.856L57.4614 96.1302L55.8207 98.6369ZM41.4297 93.332L50.1073 98.9858L55.4335 90.8487L46.6516 85.3566L41.4297 93.332Z" fill="url(#paint1_linear_137_338)"/>
<circle cx="17.6582" cy="24.0122" r="4" fill="#A0D6F8"/>
<defs>
<linearGradient id="paint0_linear_137_338" x1="26.8692" y1="19.9882" x2="108.683" y2="137.373" gradientUnits="userSpaceOnUse">
<stop stop-color="#456D86"/>
<stop offset="1" stop-color="#A0D6F8"/>
</linearGradient>
<linearGradient id="paint1_linear_137_338" x1="44.6546" y1="47.9369" x2="103.093" y2="130.258" gradientUnits="userSpaceOnUse">
<stop stop-color="#3C6985"/>
<stop offset="1" stop-color="#A0D6F8"/>
</linearGradient>
</defs>
</svg>
