<svg width="200" height="200" viewBox="0 0 204 204" fill="none" xmlns="http://www.w3.org/2000/svg">
<g clip-path="url(#clip0_139_356)">
<path d="M184.47 101.997C184.967 101.318 185.477 100.639 185.959 99.96C198.361 82.2503 200.975 65.8091 193.331 53.6616C186.265 42.4384 171.083 36.2578 150.568 36.2578C146.988 36.2578 143.278 36.4682 139.485 36.8411C130.264 18.0126 116.991 6.375 102 6.375C87.0156 6.375 73.7429 18.0126 64.5214 36.8411C60.8399 36.4664 57.1422 36.2717 53.4417 36.2578C32.9333 36.2578 17.7448 42.4384 10.6782 53.6616C3.02816 65.8091 5.6451 82.2503 18.0445 99.96C18.5226 100.639 19.0326 101.318 19.533 101.997C19.0294 102.676 18.5194 103.352 18.0413 104.037C5.64191 121.74 3.02497 138.188 10.675 150.335C17.7417 161.555 32.9301 167.742 53.4385 167.742H53.4449C57.1434 167.729 60.839 167.533 64.5182 167.156C73.7397 185.991 87.0124 197.625 102 197.625C116.994 197.625 130.267 185.991 139.485 167.156C143.275 167.529 146.988 167.742 150.568 167.742C171.083 167.742 186.265 161.562 193.331 150.335C200.975 138.188 198.361 121.74 185.959 104.037C185.477 103.352 184.967 102.676 184.47 101.997ZM150.565 41.7403C168.848 41.7403 182.198 46.9455 188.149 56.4028C194.622 66.6857 192.066 81.1028 180.926 96.9988L180.744 97.2379C172.676 87.5224 162.174 78.1702 149.927 69.7425C148.059 59.6031 145.315 50.3019 141.872 42.1196C144.837 41.8742 147.747 41.7403 150.565 41.7403ZM126.945 141.621C118.895 145.865 110.561 149.549 102.003 152.646C93.4435 149.549 85.1075 145.865 77.0547 141.621C71.0727 138.451 65.2574 134.976 59.6318 131.21C57.9826 121.561 57.1605 111.789 57.1742 102C57.1742 91.7713 58.0476 81.9474 59.6318 72.7834C65.2572 69.0189 71.0725 65.5464 77.0547 62.3794C85.1057 58.1323 93.442 54.4493 102.003 51.357C110.561 54.4539 118.894 58.1367 126.945 62.3794C132.926 65.5458 138.74 69.0173 144.365 72.7802C146.016 82.4322 146.838 92.2078 146.823 102C146.823 112.226 145.952 122.053 144.365 131.217C138.74 134.979 132.926 138.452 126.945 141.621ZM142.829 138.937C140.986 147.062 138.551 154.54 135.644 161.157C127.506 160.067 118.996 158.132 110.342 155.448C121.636 150.913 132.508 145.388 142.829 138.937ZM93.6583 155.448C85.0075 158.132 76.4969 160.067 68.3624 161.157C65.449 154.54 63.0201 147.062 61.1745 138.937C65.3807 141.568 69.6814 144.045 74.068 146.364C80.4335 149.735 86.9727 152.767 93.6583 155.448ZM52.8137 126.448C42.4894 118.82 33.711 110.536 26.8802 102C33.711 93.4671 42.4862 85.1732 52.8137 77.5519C51.7298 85.6571 51.191 93.8259 51.2009 102.003C51.2009 110.479 51.7619 118.667 52.8137 126.448ZM61.1714 65.0664C63.0169 56.9447 65.4458 49.4636 68.3592 42.8464C76.4937 43.9333 85.0043 45.8681 93.6583 48.552C86.9733 51.2353 80.4341 54.2687 74.068 57.6396C69.6807 59.9584 65.379 62.4357 61.1714 65.0664ZM110.348 48.5488C118.996 45.8681 127.506 43.9333 135.644 42.8432C138.551 49.4604 140.986 56.9383 142.829 65.0633C132.51 58.6115 121.641 53.0851 110.348 48.5488ZM151.19 77.5487C161.511 85.1732 170.295 93.4639 177.126 102C170.295 110.536 161.52 118.83 151.19 126.448C152.241 118.667 152.802 110.479 152.802 102.003C152.802 93.5181 152.241 85.3294 151.19 77.5487ZM102 12.3516C114.09 12.3516 125.074 21.9906 133.142 37.6061C123.124 39.0756 112.592 41.7308 102.003 45.4346C91.4144 41.7308 80.8797 39.0756 70.8614 37.6061C78.9321 21.9906 89.9099 12.3516 102 12.3516ZM23.0712 96.9988C11.9404 81.1028 9.37447 66.6825 15.8483 56.4028C21.8025 46.9455 35.155 41.7403 53.4385 41.7403C56.2562 41.7403 59.1632 41.8742 62.1276 42.1196C58.6787 50.3019 55.9375 59.6031 54.0664 69.7425C41.8232 78.1702 31.3204 87.5256 23.2528 97.2379C23.1987 97.1582 23.1285 97.0785 23.0712 96.9988ZM53.448 162.257H53.4417C35.1582 162.257 21.8089 157.051 15.8515 147.594C9.37766 137.314 11.9404 122.897 23.0743 106.998C23.1317 106.918 23.2018 106.842 23.2592 106.762C31.3268 116.474 41.8296 125.83 54.0728 134.261C55.9439 144.397 58.6851 153.704 62.134 161.884C59.1664 162.126 56.2626 162.257 53.448 162.257ZM102 191.648C89.913 191.648 78.9321 182.013 70.8614 166.391C80.8765 164.921 91.408 162.263 101.997 158.565C112.586 162.263 123.124 164.921 133.142 166.391C125.071 182.013 114.09 191.648 102 191.648ZM188.155 147.597C182.198 157.055 168.848 162.26 150.565 162.26C147.744 162.26 144.837 162.129 141.872 161.887C145.315 153.701 148.059 144.4 149.927 134.264C162.174 125.833 172.676 116.478 180.744 106.759C180.801 106.839 180.868 106.922 180.932 107.001C192.066 122.9 194.632 137.318 188.155 147.597Z" fill="url(#paint0_linear_139_356)"/>
<path d="M102 119.93C111.902 119.93 119.93 111.902 119.93 102C119.93 92.0977 111.902 84.0703 102 84.0703C92.0977 84.0703 84.0703 92.0977 84.0703 102C84.0703 111.902 92.0977 119.93 102 119.93Z" fill="url(#paint1_linear_139_356)"/>
<circle cx="193.182" cy="56.4375" r="11.991" transform="rotate(-4.09965 193.182 56.4375)" fill="#A0D6F8"/>
<circle cx="11.8176" cy="57.9364" r="11.991" transform="rotate(-4.09965 11.8176 57.9364)" fill="#A0D6F8"/>
<circle cx="190.184" cy="150.867" r="11.991" transform="rotate(-4.09965 190.184 150.867)" fill="#A0D6F8"/>
<circle cx="11.8176" cy="146.37" r="11.991" transform="rotate(-4.09965 11.8176 146.37)" fill="#A0D6F8"/>
</g>
<defs>
<linearGradient id="paint0_linear_139_356" x1="17.9999" y1="-3.74999" x2="162" y2="198" gradientUnits="userSpaceOnUse">
<stop stop-color="#76A3BE"/>
<stop offset="0.0001" stop-color="#447695"/>
<stop offset="1" stop-color="#A0D6F8"/>
</linearGradient>
<linearGradient id="paint1_linear_139_356" x1="78" y1="78" x2="120" y2="126.75" gradientUnits="userSpaceOnUse">
<stop stop-color="#3E6A85"/>
<stop offset="1" stop-color="#A0D6F8"/>
</linearGradient>
<clipPath id="clip0_139_356">
<rect width="204" height="204" fill="white"/>
</clipPath>
</defs>
</svg>
